<!-- Generated by IcoMoon.io -->
<svg version="1.1" xmlns="http://www.w3.org/2000/svg" width="45" height="32" viewBox="0 0 45 32">
<title>appetizer</title>
<path d="M8.255 1.283l0.002 5.858-3.519 0.001 0.002 10.616h9.751v-10.617l-3.519-0.003 0.004-5.854zM21.35 1.283l-0.003 6.049c-2.282 0.556-3.995 2.693-3.952 5.208 0.051 2.932 2.468 5.268 5.4 5.217s5.267-2.468 5.217-5.4c-0.042-2.43-1.711-4.451-3.942-5.043l0.003-6.031zM34.444 1.283l-0.003 6.049c-2.282 0.556-3.995 2.693-3.952 5.208 0.051 2.932 2.468 5.268 5.4 5.217s5.267-2.468 5.217-5.4c-0.042-2.43-1.71-4.451-3.942-5.043l0.002-6.031zM1.527 20.778c-1.060 0-1.445 0.867-1.349 1.59 0.746 1.701 5.086 1.495 10.976 4.213v1.156c-0.048 1.445 1.060 2.842 2.89 2.986l8.32-0.024 8.321 0.024c1.831-0.145 2.938-1.541 2.89-2.986v-1.156c5.89-2.718 10.23-2.511 10.976-4.213 0.096-0.723-0.289-1.59-1.349-1.59z"></path>
</svg>
