<!-- Generated by IcoMoon.io -->
<svg version="1.1" xmlns="http://www.w3.org/2000/svg" width="36" height="32" viewBox="0 0 36 32">
<title>book-plus</title>
<path d="M2.037 2.54c-1.084-0.006-1.969 0.835-1.969 1.889v20.747c0 0.997 0.806 1.829 1.843 1.883 3.039 0.16 9.186 0.744 13.435 2.883 0.652 0.329 1.425-0.119 1.425-0.827v-22.36c0-0.325-0.161-0.623-0.446-0.798-4.129-2.528-10.817-3.222-14.183-3.414-0.035-0.002-0.071-0.003-0.105-0.003zM33.471 2.54c-0.035 0-0.070 0.001-0.105 0.003-3.365 0.191-10.054 0.886-14.183 3.414-0.285 0.174-0.446 0.484-0.446 0.809v22.345c0 0.709 0.776 1.158 1.43 0.829 1.517-0.763 3.275-1.329 5.047-1.747l-0.022-0.491-1.519-0c-1.356 0.001-2.978-1.622-2.979-2.978l0-1.799c-0.001-1.356 1.623-2.978 2.978-2.979l1.519 0v-1.519c0.001-1.356 1.622-2.979 2.978-2.978l1.799-0c1.356 0.001 2.979 1.622 2.978 2.978l0 1.519 1.519 0c0.315-0 0.644 0.087 0.974 0.238v-15.755c0.001-1.054-0.885-1.895-1.968-1.889zM28.169 17.527c-0.495 0-0.899 0.405-0.899 0.899v3.598h-3.598c-0.495 0-0.9 0.405-0.9 0.9v1.799c0 0.495 0.405 0.899 0.9 0.899h3.598v3.598c0 0.495 0.405 0.899 0.899 0.899h1.799c0.495 0 0.9-0.405 0.9-0.899v-3.598h3.598c0.495 0 0.9-0.405 0.9-0.899v-1.799c0-0.495-0.405-0.9-0.9-0.9h-3.598v-3.598c0-0.495-0.405-0.899-0.9-0.899z"></path>
</svg>
