<!-- Generated by IcoMoon.io -->
<svg version="1.1" xmlns="http://www.w3.org/2000/svg" width="46" height="32" viewBox="0 0 46 32">
<title>book-cog</title>
<path d="M2.136 2.135c-1.11-0.007-2.017 0.855-2.017 1.935v21.225c0 1.022 0.826 1.874 1.889 1.929 3.109 0.163 9.397 0.761 13.742 2.949 0.669 0.337 1.463-0.123 1.463-0.849v-22.875c0-0.333-0.165-0.639-0.458-0.819-4.225-2.587-11.068-3.297-14.511-3.493-0.035-0.002-0.070-0.003-0.105-0.003v-0zM34.285 2.135c-3.551 0.199-10.394 0.91-14.618 3.496-0.293 0.18-0.458 0.485-0.458 0.819v22.875c0 0.726 0.794 1.186 1.463 0.849 1.738-0.875 3.787-1.496 5.816-1.953-0.799-1.085-1.471-2.37-1.864-3.635-0.281-0.935 0.342-2.624 1.686-3.236v-0.684c-1.314-0.59-1.981-2.244-1.684-3.216 0.513-1.655 1.515-3.363 2.517-4.445 0.81-0.875 2.603-1.163 3.811-0.308l0.573-0.334c-0.153-1.455 0.982-2.881 1.96-3.086 0.794-0.18 1.305-0.286 1.721-0.286 0.283-0.003 0.726 0.003 1.095 0.018v-4.939c0-1.080-0.907-1.942-2.018-1.935zM36.093 11.207c-0.725 0.002-1.441 0.083-2.132 0.24-0.214 0.045-0.369 0.24-0.369 0.46v1.947l-0.002 0.001c-0.88 0.313-1.696 0.783-2.406 1.389l-0.002 0.002-1.685-0.973c-0.188-0.11-0.434-0.071-0.583 0.091-0.978 1.057-1.728 2.335-2.165 3.744-0.065 0.214 0.026 0.44 0.214 0.55l1.685 0.973v0.003c-0.17 0.92-0.17 1.859 0 2.778v0.002l-1.685 0.973c-0.194 0.11-0.278 0.337-0.214 0.55 0.437 1.409 1.187 2.681 2.165 3.744 0.149 0.162 0.389 0.201 0.583 0.091l1.685-0.973 0.002 0.002c0.711 0.607 1.526 1.076 2.406 1.389l0.002 0.001v1.947c0 0.22 0.155 0.415 0.369 0.46 1.454 0.326 2.935 0.313 4.318 0 0.214-0.045 0.369-0.24 0.369-0.46v-1.947l0.002-0.001c0.88-0.313 1.696-0.783 2.406-1.389l0.002-0.002 1.685 0.973c0.188 0.11 0.434 0.071 0.583-0.091 0.978-1.057 1.728-2.335 2.166-3.744 0.065-0.214-0.026-0.44-0.214-0.55l-1.685-0.973 0.001-0.002c0.17-0.92 0.17-1.859 0-2.778l-0.001-0.003 1.685-0.973c0.194-0.11 0.279-0.337 0.214-0.55-0.437-1.409-1.187-2.687-2.166-3.744-0.149-0.162-0.389-0.201-0.583-0.091l-1.685 0.973-0.002-0.002c-0.711-0.607-1.526-1.076-2.406-1.389l-0.002-0.001v-1.947c0-0.22-0.156-0.415-0.369-0.46-0.727-0.163-1.461-0.241-2.186-0.24zM36.126 17.86c1.74 0 3.161 1.421 3.161 3.161s-1.414 3.161-3.161 3.161c-1.747 0-3.161-1.421-3.161-3.161s1.421-3.161 3.161-3.161z"></path>
</svg>
