<!-- Generated by IcoMoon.io -->
<svg version="1.1" xmlns="http://www.w3.org/2000/svg" width="32" height="32" viewBox="0 0 32 32">
<title>calendar-cog</title>
<path d="M6.936 0.059c-0.395 0-0.718 0.323-0.718 0.718v3.276h-3.026c-1.637 0-2.963 1.327-2.963 2.964v2.246c0 0.395 0.323 0.717 0.718 0.717h26.454c0.395 0 0.718-0.323 0.718-0.717v-2.246c0-1.636-1.327-2.964-2.964-2.964h-3.026v-3.276c0-0.395-0.323-0.718-0.718-0.718h-2.496c-0.395 0-0.718 0.323-0.718 0.718v3.276h-8.049v-3.276c0-0.395-0.323-0.718-0.717-0.718zM0.946 11.976c-0.429 0-0.78 0.351-0.78 0.78v16.222c0 1.67 1.356 3.026 3.026 3.026h15.2c-0.103-0.243-0.159-0.484-0.158-0.705v-0.338c-0.129-0.109-0.121-0.132-0.387-0.221l-0.299 0.173c-0.876 0.495-2.637 0.211-3.302-0.513-1.115-1.212-2.099-2.88-2.605-4.511-0.281-0.93 0.341-2.61 1.229-3.112l0.284-0.164c0.028-0.153 0.036-0.253-0.001-0.446l-0.299-0.173c-0.844-0.496-1.505-2.144-1.212-3.105 0.504-1.627 1.489-3.305 2.607-4.513 0.666-0.723 2.452-1.007 3.314-0.5l0.284 0.164c0.154-0.059 0.265-0.129 0.387-0.222v-0.338c0.001-0.463 0.246-1.018 0.606-1.504zM22.895 12.792c-0.709 0.002-1.409 0.081-2.085 0.234-0.21 0.045-0.364 0.236-0.364 0.453v1.9c-0.861 0.306-1.658 0.765-2.353 1.358l-1.645-0.95c-0.185-0.108-0.427-0.070-0.574 0.089-0.957 1.033-1.69 2.283-2.117 3.661-0.064 0.21 0.025 0.434 0.21 0.542l1.645 0.95c-0.166 0.899-0.166 1.818 0 2.717l-1.645 0.95c-0.191 0.108-0.274 0.332-0.21 0.542 0.427 1.378 1.161 2.621 2.117 3.661 0.147 0.159 0.383 0.198 0.574 0.089l1.645-0.95c0.695 0.593 1.492 1.052 2.353 1.358v1.9c0 0.217 0.153 0.408 0.364 0.453 1.422 0.319 2.87 0.306 4.222 0 0.21-0.045 0.364-0.236 0.364-0.453v-1.9c0.861-0.306 1.658-0.765 2.353-1.358l1.645 0.95c0.185 0.108 0.427 0.070 0.574-0.089 0.957-1.033 1.69-2.283 2.117-3.661 0.064-0.21-0.025-0.434-0.21-0.542l-1.645-0.95c0.166-0.899 0.166-1.818 0-2.717l1.645-0.95c0.191-0.108 0.274-0.332 0.21-0.542-0.427-1.378-1.161-2.628-2.117-3.661-0.147-0.159-0.383-0.198-0.574-0.089l-1.645 0.95c-0.695-0.593-1.492-1.052-2.353-1.358v-1.9c0-0.217-0.153-0.408-0.364-0.453-0.711-0.159-1.429-0.236-2.137-0.234zM22.928 19.296c1.703 0 3.093 1.39 3.093 3.093s-1.384 3.093-3.093 3.093c-1.709 0-3.093-1.39-3.093-3.093s1.39-3.093 3.093-3.093z"></path>
</svg>
