<!-- Generated by IcoMoon.io -->
<svg version="1.1" xmlns="http://www.w3.org/2000/svg" width="28" height="32" viewBox="0 0 28 32">
<title>calendar-solid-edit</title>
<path d="M6.801 0.066c-0.394 0-0.716 0.322-0.716 0.716v3.268h-3.019c-1.633 0-2.956 1.324-2.956 2.956v2.241c0 0.394 0.322 0.716 0.716 0.716h26.389c0.394 0 0.716-0.322 0.716-0.716v-2.241c0-1.633-1.324-2.956-2.956-2.956h-3.019v-3.268c0-0.394-0.322-0.716-0.716-0.716h-2.49c-0.394 0-0.716 0.322-0.716 0.716v3.268h-8.029v-3.268c0-0.394-0.322-0.716-0.716-0.716zM0.826 11.953c-0.428 0-0.778 0.35-0.778 0.778v16.182c0 1.666 1.352 3.019 3.019 3.019l4.92 0c-0.21-0.453-0.313-0.926-0.265-1.375l0.515-4.621 13.17-13.164c0.389-0.388 0.927-0.659 1.523-0.811zM24.134 13.992c-0.381 0-0.762 0.145-1.052 0.434l-2.608 2.608 4.469 4.463 2.602-2.602c0.579-0.585 0.579-1.525 0-2.11l-2.359-2.359c-0.289-0.289-0.671-0.434-1.052-0.434zM19.068 18.441l-8.583 8.576-0.423 3.797c-0.068 0.635 0.467 1.17 1.095 1.095l3.79-0.423 8.583-8.583zM27.998 21.77l-10.173 10.162h7.15c1.666 0 3.018-1.352 3.018-3.019v-7.12z"></path>
</svg>
