<!-- Generated by IcoMoon.io -->
<svg version="1.1" xmlns="http://www.w3.org/2000/svg" width="28" height="32" viewBox="0 0 28 32">
<title>calendar-solid-plus</title>
<path d="M6.8 0.061c-0.394 0-0.716 0.322-0.716 0.716v3.267h-3.018c-1.632 0-2.956 1.324-2.956 2.956v2.24c0 0.394 0.322 0.716 0.716 0.716h26.384c0.394 0 0.716-0.322 0.716-0.716v-2.24c0-1.632-1.324-2.956-2.956-2.956h-3.018v-3.267c0-0.394-0.322-0.716-0.716-0.716h-2.489c-0.394 0-0.716 0.322-0.716 0.716v3.267h-8.027v-3.267c0-0.394-0.322-0.716-0.716-0.716h-2.489zM0.826 11.947c-0.428 0-0.778 0.35-0.778 0.778v16.179c0 1.666 1.352 3.018 3.018 3.018h21.904c1.666 0 3.018-1.352 3.018-3.018v-16.179c0-0.428-0.35-0.778-0.778-0.778h-26.384zM13.279 14.839h1.991c0.548 0 0.996 0.448 0.996 0.996v3.983h3.983c0.548 0 0.996 0.448 0.996 0.996v1.991c0 0.548-0.448 0.996-0.996 0.996h-3.983v3.983c0 0.548-0.448 0.996-0.996 0.996h-1.991c-0.548 0-0.996-0.448-0.996-0.996v-3.983h-3.983c-0.548 0-0.996-0.448-0.996-0.996v-1.991c0-0.548 0.448-0.996 0.996-0.996h3.983v-3.983c0-0.548 0.448-0.996 0.996-0.996z"></path>
</svg>
