<!-- Generated by IcoMoon.io -->
<svg version="1.1" xmlns="http://www.w3.org/2000/svg" width="30" height="32" viewBox="0 0 30 32">
<title>dancing</title>
<path d="M7.974 0.011c-0.412 0.005-0.826 0.137-1.177 0.407-0.862 0.658-1.119 2.128-0.45 2.995h0l4.992 8.646-1.043 4.683c-0.32 1.28 0.025 2.64 0.917 3.619l3.658 3.994c0.436 0.479 0.745 1.054 0.903 1.678l1.118 4.476c0.267 1.060 1.346 1.712 2.406 1.445s1.712-1.346 1.445-2.406l-1.356-5.435c-0.16-0.634-0.474-1.225-0.917-1.705l-0-0-2.767-3.023 1.021-4.078 0.303 0.908c0.326 0.991 1.028 1.809 1.951 2.277l1.423 0.72c0.967 0.49 2.147 0.093 2.637-0.887v-0c0.477-0.974 0.087-2.177-0.887-2.667h-0l-1.412-0.715-0.588-1.783c-0.902-2.736-3.417-4.65-6.27-4.656l-4.305-7.723c-0.399-0.512-0.999-0.778-1.601-0.772zM17.021 0.987c-1.635 0-2.962 1.327-2.962 2.962s1.327 2.962 2.962 2.962c1.635 0 2.962-1.327 2.962-2.962s-1.327-2.962-2.962-2.962zM5.712 10.828c-0.564-0-1.048 0.143-1.531 0.287-0.363 0.114-0.611 0.451-0.611 0.832v6.999c-0.277-0.066-0.56-0.101-0.845-0.103h-0c-0.714 0-1.36 0.193-1.829 0.505s-0.761 0.746-0.761 1.225c0 0.48 0.292 0.913 0.761 1.226s1.115 0.505 1.829 0.505c0.714 0 1.36-0.193 1.829-0.505s0.761-0.746 0.761-1.226l0.015-6.554c0-0.141 0.011-0.415 0.283-0.505 0.272-0.079 0.826-0.24 1.982 0.389l0.13-2.5c-0.805-0.431-1.449-0.575-2.012-0.575zM28.444 14.393c-0.564-0-1.047 0.143-1.531 0.287-0.363 0.114-0.611 0.451-0.611 0.832v6.999c-0.277-0.066-0.561-0.101-0.845-0.103-0.714 0-1.36 0.193-1.829 0.505s-0.761 0.746-0.761 1.225c0 0.48 0.292 0.913 0.761 1.226s1.115 0.505 1.829 0.505c0.714 0 1.36-0.193 1.829-0.505s0.761-0.746 0.761-1.226l0.015-6.554c0-0.141 0.011-0.415 0.283-0.505 0.272-0.079 0.826-0.24 1.982 0.389l0.13-2.5c-0.805-0.431-1.449-0.575-2.013-0.575zM9.415 21.072l-1.285 3.196c-0.194 0.491-0.485 0.933-0.86 1.302l-0 0-3.053 3.059c-0.775 0.775-0.775 2.034 0 2.809s2.028 0.775 2.803 0l3.627-3.627c0.375-0.375 0.671-0.825 0.874-1.323l0-0 0.832-2.082-0.013-0.014c-1.688-1.841-2.28-2.48-2.514-2.747-0.117-0.134-0.143-0.173-0.175-0.226s-0.070-0.121-0.203-0.303z"></path>
</svg>
