<!-- Generated by IcoMoon.io -->
<svg version="1.1" xmlns="http://www.w3.org/2000/svg" width="36" height="32" viewBox="0 0 36 32">
<title>dollar_2</title>
<path d="M11.335-0.018c-0.366 0-0.665 0.451-0.665 1.002v3.005h-0.104c-2.646 0-4.773 3.425-4.528 7.488 0.174 2.886 1.637 5.234 3.481 6.048l4.258 1.878c0.519 0.232 0.881 0.958 0.881 1.772 0 1.021-0.548 1.847-1.225 1.847h-2.754c-0.507 0-1.005-0.232-1.421-0.657-0.253-0.257-0.594-0.194-0.81 0.125l-1.445 2.129c-0.295 0.432-0.253 1.152 0.075 1.534 1.018 1.202 2.289 1.872 3.593 1.878v3.005c0 0.551 0.299 1.002 0.665 1.002h1.329c0.366 0 0.665-0.451 0.665-1.002v-3.018c1.936-0.056 3.751-1.791 4.391-4.552 0.893-3.857-0.606-7.814-3.011-8.872l-4.486-1.979c-0.519-0.225-0.88-0.958-0.88-1.772 0-1.021 0.548-1.847 1.225-1.847h2.754c0.507 0 1.005 0.232 1.421 0.657 0.253 0.257 0.594 0.194 0.81-0.125l1.445-2.129c0.295-0.432 0.253-1.152-0.075-1.534-1.018-1.202-2.289-1.872-3.593-1.878v-3.005c0-0.551-0.299-1.002-0.665-1.002h-1.329zM23.261-0.018c-0.366 0-0.664 0.451-0.664 1.002v3.005h-0.104c-2.646 0-4.773 3.425-4.527 7.488 0.174 2.886 1.637 5.234 3.481 6.048l4.258 1.878c0.519 0.232 0.881 0.958 0.881 1.772 0 1.021-0.548 1.847-1.225 1.847h-2.754c-0.507 0-1.005-0.232-1.421-0.657-0.253-0.257-0.594-0.194-0.81 0.125l-1.445 2.129c-0.295 0.432-0.253 1.152 0.075 1.534 1.018 1.202 2.289 1.872 3.593 1.878v3.005c0 0.551 0.299 1.002 0.664 1.002h1.329c0.366 0 0.665-0.451 0.665-1.002v-3.018c1.936-0.056 3.751-1.791 4.39-4.552 0.893-3.857-0.606-7.814-3.011-8.872l-4.486-1.979c-0.519-0.225-0.881-0.958-0.881-1.772 0-1.021 0.548-1.847 1.225-1.847h2.754c0.507 0 1.005 0.232 1.421 0.657 0.253 0.257 0.594 0.194 0.81-0.125l1.445-2.129c0.295-0.432 0.253-1.152-0.075-1.534-1.018-1.202-2.289-1.872-3.593-1.878v-3.005c0-0.551-0.299-1.002-0.665-1.002h-1.329z"></path>
</svg>
