<!-- Generated by IcoMoon.io -->
<svg version="1.1" xmlns="http://www.w3.org/2000/svg" width="36" height="32" viewBox="0 0 36 32">
<title>ham</title>
<path d="M29.446 0.32c-0.578-0.007-1.27 0.206-2.062 0.702-1.027 0.644-1.32 1.97-0.969 4.066 0 0-2.916 2.847-3.919 3.213-3.162-0.713-6.659-0.911-9.688 0.232-3.097 1.168-6.64 2.69-10.249 7.313 3.609-3.655 9.767-3.425 13.753 0.512s4.293 10.091 0.684 13.746c3.675-2.327 6.512-6.806 7.844-9.231 3.004-5.347 1.182-8.665 1.182-8.665l3.756-3.495c0 0 4.117 0.999 4.938-1.047 1.6-3.98-3.443-3.622-3.443-3.622 0.489-2.009-0.23-3.704-1.827-3.723zM8.408 14.986c-1.994 0.021-3.924 0.758-5.375 2.227-3.094 3.133-2.832 8.41 0.586 11.785s8.697 3.572 11.792 0.439c3.094-3.133 2.832-8.41-0.586-11.785-1.816-1.793-4.157-2.689-6.417-2.665zM9.388 20.203c0.543-0.008 1.106 0.19 1.559 0.597l0 0.001 0.002 0.001c0.907 0.814 1.032 2.15 0.282 2.987l-0.001 0.001c-0.751 0.837-2.095 0.857-3.001 0.044l-0.002-0.001c-0.907-0.814-1.032-2.15-0.282-2.987l0.001-0.002c0.375-0.418 0.899-0.633 1.442-0.641z"></path>
</svg>
