<!-- Generated by IcoMoon.io -->
<svg version="1.1" xmlns="http://www.w3.org/2000/svg" width="39" height="32" viewBox="0 0 39 32">
<title>image-plus</title>
<path d="M3.107 3.988c-1.671 0-3.026 1.355-3.026 3.026v17.971c0 1.671 1.355 3.026 3.026 3.026h25.958c1.671 0 3.026-1.355 3.032-3.105l-1.189-0c-1.127 0.001-2.412-1.069-2.811-2.212v1.324h-24.023v-3.039l4.471-4.472c0.304-0.304 0.799-0.304 1.103 0l3.442 3.442 8.434-8.434c0.152-0.152 0.352-0.228 0.552-0.228l1.73 1.407c0.572-0.577 1.322-0.979 2.012-0.978l2.057-0 0-2.057c-0.001-1.395 1.638-3.032 3.003-3.033l1.195 0c-0.213-1.501-1.479-2.638-3.009-2.638zM7.1 7.483c1.947 0 3.525 1.579 3.525 3.525s-1.579 3.526-3.525 3.526c-1.947 0-3.525-1.579-3.525-3.526s1.579-3.525 3.525-3.525zM30.908 8.638c-0.562 0-1.021 0.459-1.021 1.021v4.069h-4.069c-0.562 0-1.021 0.459-1.021 1.021v2.036c0 0.562 0.459 1.021 1.021 1.021h4.069v4.069c0 0.562 0.459 1.021 1.021 1.021h2.036c0.562 0 1.021-0.459 1.021-1.021v-4.069h4.069c0.562 0 1.021-0.459 1.021-1.021v-2.036c0-0.562-0.459-1.021-1.021-1.021h-4.069v-4.069c0-0.562-0.459-1.021-1.021-1.021z"></path>
</svg>
