<!-- Generated by IcoMoon.io -->
<svg version="1.1" xmlns="http://www.w3.org/2000/svg" width="43" height="32" viewBox="0 0 43 32">
<title>image-cog</title>
<path d="M3.156 3.971c-1.671 0-3.026 1.355-3.026 3.026v17.97c0 1.671 1.355 3.026 3.026 3.026h17.643c-0.573-0.916-1.037-1.919-1.345-2.911-0.089-0.297-0.125-0.661-0.077-1.082h-15.254v-3.039l4.471-4.471c0.304-0.304 0.799-0.304 1.103 0l3.442 3.442 8.433-8.433c0.152-0.152 0.352-0.228 0.552-0.228s0.399 0.076 0.893 0.475c1.007-0.496 2.447-0.553 3.295 0.295l0.729-0.424c-0.337-1.697 1.099-3.171 2.178-3.397 0.874-0.199 1.931-0.318 2.493-0.351 0.15-0.012 0.301-0.018 0.428-0.001v-0.87c0-1.671-1.355-3.026-3.026-3.026zM7.15 7.465v0c1.947 0 3.526 1.579 3.526 3.525s-1.579 3.525-3.526 3.525c-1.947 0-3.526-1.579-3.526-3.525s1.579-3.526 3.526-3.526zM32.089 10.344c-0.798 0.002-1.587 0.092-2.349 0.264-0.235 0.050-0.407 0.264-0.407 0.507v2.144l-0.002 0.001c-0.97 0.345-1.868 0.862-2.651 1.53l-0.002 0.002-1.857-1.072c-0.207-0.121-0.478-0.078-0.642 0.1-1.078 1.164-1.904 2.572-2.385 4.124-0.071 0.236 0.029 0.485 0.236 0.606l1.856 1.072-0 0.002c-0.187 1.013-0.187 2.047 0 3.060l0 0.003-1.857 1.072c-0.214 0.121-0.307 0.371-0.235 0.606 0.481 1.552 1.307 2.953 2.385 4.124 0.164 0.178 0.428 0.221 0.642 0.1l1.857-1.072 0.002 0.001c0.783 0.668 1.681 1.186 2.651 1.53l0.002 0.001v2.144c0 0.243 0.172 0.457 0.407 0.507 1.602 0.359 3.233 0.345 4.756 0 0.235-0.050 0.407-0.264 0.407-0.507v-2.144l0.002-0.001c0.97-0.345 1.868-0.862 2.651-1.53l0.002-0.001 1.856 1.072c0.207 0.121 0.478 0.079 0.643-0.1 1.078-1.164 1.904-2.572 2.385-4.124 0.071-0.236-0.028-0.485-0.235-0.606l-1.857-1.072 0.001-0.003c0.187-1.013 0.187-2.047 0-3.060l-0.001-0.002 1.857-1.072c0.214-0.121 0.307-0.371 0.235-0.606-0.481-1.552-1.307-2.96-2.385-4.124-0.164-0.178-0.428-0.221-0.643-0.1l-1.856 1.072-0.002-0.002c-0.783-0.668-1.681-1.185-2.651-1.53l-0.002-0.001v-2.144c0-0.243-0.172-0.457-0.407-0.507-0.801-0.18-1.609-0.266-2.408-0.264zM32.126 17.673c1.917 0 3.482 1.565 3.482 3.482s-1.558 3.482-3.482 3.482c-1.924 0-3.482-1.565-3.482-3.482s1.565-3.482 3.482-3.482z"></path>
</svg>
