<!-- Generated by IcoMoon.io -->
<svg version="1.1" xmlns="http://www.w3.org/2000/svg" width="36" height="32" viewBox="0 0 36 32">
<title>lamb</title>
<path d="M11.076 19.439c-0.31-1.576-0.828-3.101 0.301-4.18 3.068-2.933 7.521-6.179 9.431-9.616 1.708-3.073 2.349-4.883 3.55-5.511 1.555-0.814 7.030 4.155 8.073 5.101 1.94 1.761 2.796 3.272 2.732 5.207-0.087 2.647-1.115 5.944-2.248 8.256-1.138 2.321-3.419 5.293-8.287 5.617-1.205-2.5-2.687-4.041-6.005-4.253-2.713-0.173-5.261 1.535-6.159 2.159-3.577 2.482-7.29 6.132-10.451 9.687l-1.676-1.731c3.466-4.080 7.231-8.024 10.739-10.736"></path>
</svg>
