<!-- Generated by IcoMoon.io -->
<svg version="1.1" xmlns="http://www.w3.org/2000/svg" width="39" height="32" viewBox="0 0 39 32">
<title>list-solid-cog</title>
<path d="M1.133 2.389c-0.57 0-1.033 0.463-1.033 1.033v4.006c0 0.57 0.463 1.033 1.033 1.033h4.006c0.57 0 1.033-0.463 1.033-1.033v-4.006c0-0.57-0.463-1.033-1.033-1.033h-4.006zM11.149 3.39c-0.57 0-1.033 0.463-1.033 1.033v2.003c0 0.57 0.463 1.033 1.033 1.033h20.032c0.57 0 1.033-0.463 1.033-1.033v-2.003c0-0.57-0.463-1.033-1.033-1.033h-20.032zM1.135 12.431c-0.57 0-1.033 0.463-1.033 1.033v4.006c0 0.57 0.463 1.033 1.033 1.033h4.006c0.57 0 1.033-0.463 1.033-1.033v-4.006c0-0.57-0.463-1.033-1.033-1.033h-4.006zM29.685 12.698c-0.71 0.002-1.411 0.081-2.088 0.235-0.209 0.044-0.361 0.235-0.361 0.45v1.906l-0.002 0.001c-0.862 0.306-1.66 0.766-2.356 1.36l-0.002 0.001-1.65-0.953c-0.184-0.108-0.425-0.070-0.571 0.089h-0c-0.958 1.034-1.692 2.286-2.12 3.665-0.063 0.209 0.025 0.431 0.209 0.539l1.65 0.953-0 0.002c-0.166 0.9-0.166 1.82 0 2.72l0 0.002-1.65 0.953c-0.19 0.108-0.273 0.33-0.209 0.539 0.428 1.379 1.162 2.625 2.12 3.665 0.146 0.159 0.38 0.197 0.571 0.089l1.65-0.953 0.002 0.001c0.696 0.594 1.494 1.053 2.356 1.36l0.002 0.001v1.906c0 0.216 0.152 0.406 0.361 0.45 1.424 0.319 2.874 0.306 4.228 0 0.209-0.044 0.362-0.235 0.362-0.45v-1.906l0.002-0.001c0.862-0.306 1.66-0.766 2.356-1.36l0.002-0.001 1.65 0.953c0.184 0.108 0.425 0.070 0.571-0.089 0.958-1.034 1.692-2.286 2.12-3.665 0.063-0.209-0.025-0.431-0.209-0.539l-1.65-0.953 0.001-0.002c0.166-0.9 0.166-1.82 0-2.72l-0.001-0.002 1.65-0.953c0.19-0.108 0.273-0.33 0.209-0.539-0.428-1.379-1.162-2.631-2.12-3.665-0.146-0.159-0.381-0.197-0.571-0.089l-1.65 0.953-0.002-0.001c-0.696-0.594-1.494-1.053-2.356-1.36l-0.002-0.001v-1.906c0-0.216-0.152-0.406-0.362-0.45-0.712-0.16-1.43-0.236-2.14-0.235zM11.15 13.432c-0.57 0-1.033 0.463-1.033 1.033v2.003c0 0.57 0.463 1.033 1.033 1.033h8.051c0.509-1.137 1.22-2.207 2.004-3.054 0.609-0.661 2.226-0.918 3.015-0.454l0.436 0.252c0.209-0.060 0.475-0.213 0.605-0.348v-0.464h-14.111zM29.718 19.206c1.707 0 3.102 1.394 3.102 3.102s-1.388 3.102-3.102 3.102c-1.714 0-3.101-1.394-3.101-3.102s1.394-3.102 3.101-3.102zM1.133 22.421c-0.57 0-1.033 0.463-1.033 1.033v4.006c0 0.57 0.463 1.033 1.033 1.033h4.006c0.57 0 1.033-0.463 1.033-1.033v-4.006c0-0.57-0.463-1.033-1.033-1.033h-4.006zM11.149 23.422c-0.57 0-1.033 0.463-1.033 1.033v2.003c0 0.57 0.463 1.033 1.033 1.033h8.205c-0.281-0.573-0.525-1.163-0.707-1.751-0.192-0.635 0.072-1.641 0.547-2.318h-8.044z"></path>
</svg>
