<!-- Generated by IcoMoon.io -->
<svg version="1.1" xmlns="http://www.w3.org/2000/svg" width="35" height="32" viewBox="0 0 35 32">
<title>list-solid-minus</title>
<path d="M1.048 2.49c-0.538 0-0.973 0.435-0.973 0.973v4.018c0 0.538 0.435 0.973 0.973 0.973h4.018c0.538 0 0.973-0.435 0.973-0.973v-4.018c0-0.538-0.435-0.973-0.973-0.973zM11.092 3.432c-0.572 0-1.036 0.464-1.036 1.036v2.009c0 0.572 0.464 1.036 1.036 1.036h20.089c0.572 0 1.036-0.464 1.036-1.036v-2.009c0-0.572-0.464-1.036-1.036-1.036zM1.048 12.534c-0.538 0-0.973 0.435-0.973 0.973v4.018c0 0.538 0.435 0.973 0.973 0.973h4.018c0.538 0 0.973-0.435 0.973-0.973v-4.018c0-0.538-0.435-0.973-0.973-0.973zM19.067 13.458c-0.003 0.006-0.005 0.012-0.008 0.018h0.021zM19.060 13.476h-7.967c-0.572 0-1.036 0.464-1.036 1.036v2.009c0 0.572 0.464 1.036 1.036 1.036l7.97 0.009c-0.153-0.349-0.24-0.704-0.24-1.044l-0-2.009c0-0.337 0.087-0.689 0.237-1.036zM22.392 13.539c-0.535 0-0.973 0.438-0.973 0.973v2.009c0 0.535 0.438 0.973 0.973 0.973h12.053c0.535 0 0.973-0.438 0.973-0.973v-2.009c0-0.535-0.438-0.973-0.973-0.973zM1.048 22.579c-0.538 0-0.973 0.435-0.973 0.973v4.018c0 0.538 0.435 0.973 0.973 0.973h4.018c0.538 0 0.973-0.435 0.973-0.973v-4.018c0-0.538-0.435-0.973-0.973-0.973zM11.092 23.52c-0.572 0-1.036 0.464-1.036 1.036v2.009c0 0.572 0.464 1.036 1.036 1.036h20.089c0.572 0 1.036-0.464 1.036-1.036v-2.009c0-0.572-0.464-1.036-1.036-1.036z"></path>
</svg>
