<!-- Generated by IcoMoon.io -->
<svg version="1.1" xmlns="http://www.w3.org/2000/svg" width="35" height="32" viewBox="0 0 35 32">
<title>list-solid-plus</title>
<path d="M1.166 2.83c-0.575 0-1.041 0.467-1.041 1.041v4.039c0 0.575 0.467 1.041 1.041 1.041h4.039c0.575 0 1.041-0.467 1.041-1.041v-4.039c0-0.575-0.467-1.041-1.041-1.041zM11.263 3.84c-0.575 0-1.041 0.467-1.041 1.041v2.019c0 0.575 0.467 1.041 1.041 1.041h13.261c0.68-0.817 1.672-1.427 2.563-1.428l2.020 0c0.884-0 1.865 0.599 2.549 1.403l0.004 0.005c0.478-0.094 0.84-0.516 0.84-1.022v-2.019c0-0.575-0.467-1.041-1.041-1.041zM27.087 8.888c-0.573 0-1.041 0.469-1.041 1.041v4.007h-4.007c-0.573 0-1.041 0.469-1.041 1.041v2.019c0 0.573 0.469 1.041 1.041 1.041h4.007v4.007c0 0.573 0.469 1.041 1.041 1.041h2.020c0.573 0 1.041-0.469 1.041-1.041v-4.007h4.007c0.573 0 1.041-0.469 1.041-1.041v-2.019c0-0.573-0.469-1.041-1.041-1.041h-4.007v-4.007c0-0.573-0.469-1.041-1.041-1.041zM1.166 12.927c-0.575 0-1.041 0.467-1.041 1.041v4.039c0 0.575 0.467 1.041 1.041 1.041h4.039c0.575 0 1.041-0.467 1.041-1.041v-4.039c0-0.575-0.467-1.041-1.041-1.041zM11.263 13.937c-0.575 0-1.041 0.467-1.041 1.041v2.019c0 0.575 0.467 1.041 1.041 1.041h7.605c-0.156-0.345-0.245-0.701-0.245-1.041l-0-2.019c0-0.338 0.088-0.689 0.241-1.034l-0.003-0.008zM1.166 23.024c-0.575 0-1.041 0.467-1.041 1.041v4.039c0 0.575 0.467 1.041 1.041 1.041h4.039c0.575 0 1.041-0.467 1.041-1.041v-4.039c0-0.575-0.467-1.041-1.041-1.041zM11.263 24.034c-0.575 0-1.041 0.467-1.041 1.041v2.019c0 0.575 0.467 1.041 1.041 1.041h20.194c0.575 0 1.041-0.467 1.041-1.041v-2.019c0-0.505-0.36-0.927-0.838-1.021-0.692 0.81-1.672 1.408-2.554 1.408l-2.020-0c-0.889 0-1.876-0.606-2.559-1.416l-0.004-0.012z"></path>
</svg>
