<!-- Generated by IcoMoon.io -->
<svg version="1.1" xmlns="http://www.w3.org/2000/svg" width="35" height="32" viewBox="0 0 35 32">
<title>list-solid-edit</title>
<path d="M1.299 2.854c-0.57 0-1.033 0.463-1.033 1.033v4.005c0 0.57 0.463 1.033 1.033 1.033h4.006c0.57 0 1.033-0.463 1.033-1.033v-4.005c0-0.57-0.463-1.033-1.033-1.033zM11.313 3.855c-0.57 0-1.033 0.463-1.033 1.033v2.003c0 0.57 0.463 1.033 1.033 1.033h20.027c0.57 0 1.033-0.463 1.033-1.033v-2.003c0-0.57-0.463-1.033-1.033-1.033zM31.376 11.005c-0.383 0-0.767 0.145-1.058 0.437l-2.622 2.622 4.494 4.487 2.616-2.616c0.582-0.588 0.582-1.533 0-2.122l-2.372-2.372c-0.291-0.291-0.674-0.437-1.058-0.437zM1.299 12.867c-0.57 0-1.033 0.463-1.033 1.033v4.006c0 0.57 0.463 1.033 1.033 1.033h4.006c0.57 0 1.033-0.463 1.033-1.033v-4.006c0-0.57-0.463-1.033-1.033-1.033zM11.313 13.869c-0.57 0-1.033 0.463-1.033 1.033v2.003c0 0.57 0.463 1.033 1.033 1.033h8.859l4.077-4.068zM26.281 15.478l-8.631 8.624-0.426 3.818c-0.069 0.638 0.469 1.177 1.102 1.102l3.811-0.426 8.631-8.631zM1.299 22.881c-0.57 0-1.033 0.463-1.033 1.033v4.006c0 0.57 0.463 1.033 1.033 1.033h4.006c0.57 0 1.033-0.463 1.033-1.033v-4.006c0-0.57-0.463-1.033-1.033-1.033zM15.087 23.853l-0.009 0.029h-3.765c-0.57 0-1.033 0.463-1.033 1.033v2.003c0 0.57 0.463 1.033 1.033 1.033h3.334c0.004-0.104 0.007-0.208 0.018-0.311zM30.495 23.882l-4.079 4.079 0.018-0.011h4.906c0.57 0 1.033-0.463 1.033-1.033v-2.003c0-0.57-0.463-1.033-1.033-1.033z"></path>
</svg>
