<!-- Generated by IcoMoon.io -->
<svg version="1.1" xmlns="http://www.w3.org/2000/svg" width="30" height="32" viewBox="0 0 30 32">
<title>map-marker-restaurant</title>
<path d="M15.104 0c-8.342 0-15.104 5.373-15.104 12 0 4.838 2.122 6.189 13.552 19.354 0.75 0.861 2.354 0.861 3.105 0 11.431-13.165 13.552-14.516 13.552-19.354 0-6.627-6.762-12-15.104-12zM20.915 4.606c0.323 0.317 0.646 0.633 0.97 0.95-0.753 0.806-1.506 1.613-2.259 2.419-0.193 0.23-0.409 0.435-0.614 0.652-0.185 0.167-0.024 0.55 0.219 0.475 1.015-1.027 1.969-2.129 2.962-3.184 0.338 0.339 0.675 0.677 1.013 1.016-0.417 0.456-0.833 0.913-1.25 1.369-0.526 0.59-1.073 1.164-1.593 1.756-0.22 0.17 0.072 0.527 0.291 0.447 1.006-1.034 1.945-2.149 2.926-3.213 0.313 0.333 0.626 0.665 0.939 0.998-0.735 0.907-1.469 1.815-2.204 2.722-0.358 0.376-0.599 0.888-1.046 1.161-0.797 0.374-1.729 0.304-2.535-0.003-0.429 0.507-0.858 1.014-1.287 1.521-0.454-0.467-0.908-0.935-1.361-1.402 0.481-0.469 0.962-0.938 1.443-1.406-0.046-0.208-0.102-0.412-0.153-0.619-0.232-0.791-0.222-1.731 0.27-2.412 1.038-1.108 2.157-2.13 3.227-3.205l0.042-0.041zM8.494 4.756c0.602-0.002 1.201 0.127 1.761 0.361 0.931 0.356 1.675 1.123 2.182 2.011 0.578 0.946 0.628 2.115 0.607 3.208 2.793 2.694 5.044 4.922 7.743 7.666 0.573 0.654 1.297 1.188 1.692 1.996 0.234 0.399 0.232 0.956-0.069 1.316-0.17 0.269-0.465 0.443-0.774 0.422-0.562-0.058-1.025-0.466-1.422-0.862-2.995-3.108-5.319-5.93-8.248-9.163-0.114-0.228-0.359-0.103-0.554-0.115-0.864 0.075-1.772-0.086-2.492-0.624-0.947-0.749-1.666-1.808-2.104-2.969-0.304-0.781-0.409-1.751 0.045-2.494 0.366-0.541 1.033-0.734 1.632-0.753zM13.612 14.611c0.49 0.53 0.979 1.060 1.469 1.59-1.288 1.447-2.49 2.99-3.888 4.324-0.562 0.502-1.132 1.094-1.878 1.255-0.443 0.136-0.907-0.229-0.997-0.69-0.086-0.602 0.235-1.168 0.559-1.633 1.344-1.827 3.11-3.225 4.691-4.803l0.021-0.021 0.023-0.022z"></path>
</svg>
