<!-- Generated by IcoMoon.io -->
<svg version="1.1" xmlns="http://www.w3.org/2000/svg" width="45" height="32" viewBox="0 0 45 32">
<title>music-cog</title>
<path d="M29.99 0.048c-0.034 0-0.068 0.002-0.102 0.004-0.157 0.010-0.315 0.039-0.474 0.089l-0 0-19.973 5.898c-0.819 0.257-1.376 1.016-1.376 1.875v16.357l-0.039-0.009c-0.652-0.158-1.32-0.24-1.99-0.244-1.648 0-3.141 0.446-4.219 1.165s-1.742 1.708-1.742 2.799c0 1.090 0.663 2.080 1.742 2.799s2.571 1.165 4.22 1.165c1.649 0 3.141-0.446 4.219-1.165s1.742-1.708 1.742-2.799v-14.61l16.042-4.7v4.43c0.85-0.178 1.759-0.126 2.327 0.206-0.219-0.778 0.496-1.945 1.601-2.657l0.004 0.018v-8.654c-0.001-1.126-0.927-1.976-1.981-1.966zM35.371 12.787c-0.708 0.002-1.406 0.081-2.081 0.234-0.209 0.044-0.361 0.234-0.361 0.449v1.9l-0.002 0.001c-0.86 0.306-1.655 0.764-2.349 1.356l-0.002 0.002-1.646-0.95c-0.183-0.107-0.424-0.070-0.569 0.088-0.955 1.031-1.687 2.279-2.114 3.655-0.063 0.209 0.025 0.43 0.209 0.538l1.645 0.95-0 0.002c-0.166 0.898-0.166 1.814 0 2.712l0 0.002-1.645 0.95c-0.19 0.108-0.272 0.329-0.209 0.537 0.427 1.375 1.159 2.617 2.114 3.655 0.145 0.158 0.379 0.196 0.569 0.089l1.646-0.95 0.002 0.002c0.694 0.592 1.49 1.050 2.349 1.356l0.002 0.001v1.9c0 0.215 0.152 0.405 0.361 0.449 1.42 0.318 2.865 0.306 4.215 0 0.209-0.044 0.361-0.234 0.361-0.449v-1.9l0.002-0.001c0.86-0.306 1.655-0.764 2.349-1.356l0.002-0.002 1.645 0.95c0.183 0.107 0.424 0.069 0.569-0.089 0.955-1.032 1.687-2.279 2.114-3.655 0.063-0.209-0.025-0.43-0.209-0.538v0l-1.645-0.95 0-0.002c0.166-0.898 0.166-1.814 0-2.712l-0-0.002 1.645-0.95c0.19-0.108 0.272-0.329 0.209-0.538-0.427-1.375-1.159-2.623-2.114-3.655-0.145-0.158-0.38-0.196-0.569-0.088l-1.645 0.95-0.002-0.002c-0.694-0.592-1.49-1.051-2.349-1.356l-0.002-0.001v-1.9c0-0.215-0.152-0.405-0.361-0.449-0.71-0.159-1.426-0.235-2.134-0.234zM35.404 19.282c1.699 0 3.086 1.387 3.086 3.086s-1.381 3.086-3.086 3.086c-1.705 0-3.086-1.387-3.086-3.086s1.387-3.086 3.086-3.086zM23.589 20.338c0.002 0.008 0.005 0.016 0.007 0.023 0.006-0.002 0.012-0.004 0.018-0.006zM23.596 20.362c-0.678 0.2-1.289 0.481-1.805 0.825-1.078 0.719-1.742 1.708-1.742 2.799s0.663 2.080 1.742 2.799c0.664 0.443 1.486 0.782 2.404 0.977-0.277-0.582-0.507-1.15-0.68-1.707-0.348-1.142 0.436-3.242 1.519-3.858-0.629-0.163-1.176-0.965-1.438-1.835z"></path>
</svg>
