<!-- Generated by IcoMoon.io -->
<svg version="1.1" xmlns="http://www.w3.org/2000/svg" width="32" height="32" viewBox="0 0 32 32">
<title>music-plus</title>
<path d="M29.893 0.161c-0.034 0-0.068 0.002-0.102 0.004-0.156 0.010-0.314 0.039-0.472 0.088l-0 0-14.927 4.408c0.004 0.045 0.006 0.095 0.006 0.146l0 1.722 1.715-0.006c1.531-0.001 3.362 1.832 3.363 3.363l-0.003 1.36 8.475-2.483v11.576l-0.039-0.009c-0.65-0.158-1.316-0.24-1.985-0.244-1.644 0-3.133 0.445-4.209 1.162s-1.737 1.704-1.737 2.792c0 1.088 0.662 2.075 1.737 2.792s2.564 1.162 4.209 1.162c1.644 0 3.133-0.445 4.209-1.162s1.737-1.704 1.737-2.792v-21.917c-0.001-1.123-0.925-1.971-1.976-1.961zM9.003 3.791c-0.559 0-1.016 0.457-1.016 1.016v4.063h-4.063c-0.559 0-1.016 0.457-1.016 1.016v2.031c0 0.559 0.457 1.016 1.016 1.016h4.063v4.063c0 0.559 0.457 1.016 1.016 1.016h2.031c0.559 0 1.016-0.457 1.016-1.016v-4.063h4.063c0.559 0 1.016-0.457 1.016-1.016v-2.031c0-0.559-0.457-1.016-1.016-1.016h-4.063v-4.063c0-0.559-0.457-1.016-1.016-1.016zM8.023 20.129v4.193l-0.038-0.009c-0.65-0.158-1.316-0.239-1.985-0.243-1.644 0-3.133 0.445-4.209 1.162s-1.737 1.704-1.737 2.792c0 1.088 0.661 2.074 1.737 2.792s2.564 1.162 4.209 1.162c1.644 0 3.133-0.445 4.209-1.162s1.737-1.704 1.737-2.792v-7.869c-0.303 0.134-0.613 0.204-0.911 0.203l-2.031 0c-0.318-0-0.65-0.080-0.98-0.228z"></path>
</svg>
