<!-- Generated by IcoMoon.io -->
<svg version="1.1" xmlns="http://www.w3.org/2000/svg" width="34" height="32" viewBox="0 0 34 32">
<title>restaurant-fav</title>
<path d="M8.085 0.306c-10.243-0.031-13.527 20.65 8.879 31.185 28.117-13.22 15.778-42.419 0-26.613-3.205-3.211-6.268-4.564-8.879-4.572zM22.776 6.066c0.324 0.318 0.649 0.636 0.973 0.954-0.756 0.81-1.512 1.619-2.268 2.429-0.194 0.231-0.411 0.437-0.616 0.655-0.186 0.168-0.024 0.552 0.22 0.477 1.019-1.031 1.977-2.137 2.974-3.196 0.339 0.34 0.678 0.68 1.017 1.020-0.418 0.458-0.836 0.916-1.254 1.374-0.528 0.592-1.078 1.169-1.599 1.763-0.221 0.171 0.072 0.529 0.292 0.449 1.010-1.038 1.952-2.157 2.937-3.226 0.314 0.334 0.628 0.668 0.942 1.001-0.737 0.911-1.475 1.822-2.212 2.733-0.36 0.378-0.601 0.892-1.050 1.166-0.8 0.376-1.736 0.305-2.545-0.003-0.431 0.509-0.861 1.018-1.292 1.526-0.456-0.469-0.911-0.938-1.367-1.407 0.483-0.471 0.966-0.941 1.448-1.412-0.046-0.209-0.103-0.414-0.153-0.622-0.233-0.794-0.222-1.738 0.271-2.422 1.042-1.113 2.165-2.139 3.24-3.217l0.019-0.019 0.023-0.022zM10.307 6.217c0.604-0.002 1.206 0.128 1.768 0.362 0.935 0.357 1.682 1.128 2.19 2.019 0.58 0.949 0.63 2.123 0.609 3.221 2.804 2.705 5.064 4.942 7.773 7.696 0.575 0.656 1.302 1.192 1.699 2.004 0.235 0.4 0.232 0.959-0.069 1.321-0.171 0.27-0.467 0.445-0.777 0.424-0.565-0.059-1.029-0.468-1.428-0.865-3.007-3.12-5.34-5.953-8.28-9.199-0.115-0.229-0.36-0.103-0.556-0.115-0.867 0.076-1.778-0.086-2.501-0.627-0.951-0.752-1.673-1.815-2.112-2.981-0.305-0.785-0.41-1.758 0.045-2.504 0.367-0.543 1.037-0.737 1.639-0.755zM15.444 16.11c0.492 0.532 0.983 1.064 1.475 1.597-1.294 1.453-2.5 3.002-3.903 4.341-0.564 0.504-1.136 1.099-1.885 1.26-0.444 0.137-0.911-0.23-1.001-0.693-0.086-0.604 0.236-1.173 0.561-1.64 1.35-1.834 3.122-3.238 4.71-4.822l0.021-0.021 0.023-0.022z"></path>
</svg>
