<!-- Generated by IcoMoon.io -->
<svg version="1.1" xmlns="http://www.w3.org/2000/svg" width="39" height="32" viewBox="0 0 39 32">
<title>restaurant-plus</title>
<path d="M22.249 15.7l0-1.473c-0.001-1.397 1.641-3.038 3.038-3.038l2.060 0-0-2.060c0.001-1.397 1.641-3.039 3.038-3.038l2.039-0c1.397 0.001 3.039 1.641 3.038 3.038v2.060l1.876 0c0.333-0 0.67 0.073 0.992 0.201 0.244-1.36 0.013-2.785-0.767-4.029l-4.040-6.45c-0.361-0.579-1.002-0.934-1.687-0.934h-25.151c-0.685 0-1.326 0.355-1.687 0.934l-4.040 6.45c-2.086 3.331-0.237 7.962 3.661 8.492 0.28 0.037 0.567 0.056 0.853 0.056 1.843 0 3.474-0.809 4.594-2.061 1.121 1.251 2.758 2.061 4.594 2.061 1.843 0 3.474-0.809 4.594-2.061 0.777 0.867 1.801 1.522 2.969 1.842M33.444 13.208v-4.078c0-0.561-0.459-1.020-1.020-1.020h-2.039c-0.561 0-1.020 0.459-1.020 1.020v4.078h-4.078c-0.561 0-1.020 0.459-1.020 1.020v2.039c0 0.561 0.459 1.020 1.020 1.020h4.078v4.078c0 0.561 0.459 1.020 1.020 1.020h2.039c0.561 0 1.020-0.459 1.020-1.020v-4.078h4.078c0.561 0 1.020-0.459 1.020-1.020v-2.039c0-0.561-0.459-1.020-1.020-1.020h-4.078M28.878 24.080h-21.616v-6.213c-0.598 0.137-1.214 0.237-1.837 0.237-0.374 0-0.753-0.025-1.121-0.075-0.349-0.050-0.691-0.131-1.021-0.224v12.252c0 1.102 0.89 1.992 1.992 1.992h27.891c1.102 0 1.992-0.89 1.992-1.992v-5.977l-1.313 0.002c-0.466 0.318-0.981 0.517-1.468 0.517l-2.039 0c-0.479-0-0.987-0.193-1.448-0.503"></path>
</svg>
