<!-- Generated by IcoMoon.io -->
<svg version="1.1" xmlns="http://www.w3.org/2000/svg" width="36" height="32" viewBox="0 0 36 32">
<title>resturant</title>
<path d="M29.235-0.179l-0.045 0.041-0.038 0.035c-2.134 2.015-4.365 3.933-6.435 6.012-0.981 1.278-1.002 3.042-0.539 4.526 0.1 0.388 0.213 0.771 0.305 1.161-0.959 0.88-1.918 1.759-2.877 2.638 0.905 0.876 1.81 1.753 2.715 2.63 0.855-0.951 1.711-1.902 2.566-2.853 1.608 0.576 3.466 0.708 5.055 0.006 0.892-0.512 1.371-1.472 2.085-2.178 1.465-1.702 2.929-3.404 4.394-5.106-0.624-0.624-1.248-1.248-1.872-1.872-1.957 1.996-3.828 4.088-5.834 6.027-0.437 0.15-1.019-0.519-0.58-0.838 1.036-1.11 2.129-2.187 3.177-3.294 0.831-0.856 1.661-1.713 2.492-2.569-0.673-0.636-1.346-1.271-2.019-1.906-1.98 1.979-3.884 4.047-5.907 5.973-0.486 0.141-0.806-0.576-0.438-0.89 0.408-0.408 0.838-0.792 1.224-1.223 1.502-1.513 3.003-3.026 4.505-4.539-0.644-0.594-1.289-1.188-1.933-1.782zM4.466 0.103c-1.195 0.034-2.525 0.396-3.255 1.412-0.905 1.393-0.697 3.212-0.090 4.678 0.873 2.179 2.306 4.164 4.195 5.57 1.436 1.010 3.246 1.313 4.968 1.172 0.388 0.023 0.876-0.212 1.104 0.216 5.84 6.066 10.475 11.36 16.447 17.19 0.792 0.742 1.715 1.507 2.836 1.617 0.616 0.039 1.204-0.287 1.544-0.792 0.599-0.676 0.604-1.72 0.137-2.468-0.788-1.517-2.232-2.519-3.374-3.745-5.382-5.148-9.871-9.327-15.441-14.382 0.042-2.051-0.058-4.244-1.21-6.018-1.009-1.666-2.493-3.105-4.35-3.772-1.115-0.438-2.311-0.68-3.511-0.677zM14.67 18.59l-0.045 0.042-0.042 0.039c-3.153 2.96-6.674 5.583-9.355 9.010-0.646 0.873-1.285 1.935-1.114 3.064 0.179 0.865 1.105 1.551 1.988 1.295 1.488-0.302 2.624-1.412 3.745-2.354 2.787-2.503 5.183-5.397 7.753-8.112-0.976-0.995-1.953-1.989-2.929-2.984z"></path>
</svg>
