<!-- Generated by IcoMoon.io -->
<svg version="1.1" xmlns="http://www.w3.org/2000/svg" width="39" height="32" viewBox="0 0 39 32">
<title>restaurant-edit</title>
<path d="M6.7 0.070c-0.685 0-1.326 0.355-1.687 0.934l-4.040 6.45c-2.086 3.331-0.237 7.962 3.661 8.492 0.28 0.037 0.566 0.056 0.853 0.056 1.843 0 3.474-0.809 4.594-2.061 1.121 1.251 2.758 2.061 4.594 2.061 1.843 0 3.474-0.809 4.594-2.061 1.121 1.251 2.758 2.061 4.594 2.061 1.843 0 3.832-0.703 4.898-1.575 1.147-0.938 1.891-1.798 2.575-2.488 1.465-1.464 4.908-1.465 6.372 0l0.436 0.417c0.524-1.557 0.397-3.366-0.565-4.901l-4.040-6.45c-0.361-0.579-1.002-0.934-1.687-0.934zM34.523 13.611c-0.389 0-0.778 0.148-1.073 0.443l-2.66 2.661 4.559 4.553 2.654-2.654c0.59-0.597 0.59-1.556 0-2.152l-2.406-2.407c-0.295-0.295-0.684-0.443-1.073-0.443zM3.345 17.7v12.252c0 1.102 0.89 1.992 1.992 1.992h12.125c-0.222-0.512-0.32-1.019-0.268-1.498l0.548-4.92 1.565-1.55h-11.984v-6.213c-0.598 0.137-1.214 0.237-1.837 0.237-0.374 0-0.753-0.025-1.12-0.075-0.349-0.050-0.691-0.131-1.021-0.224zM29.354 18.15l-8.756 8.75-0.432 3.873c-0.070 0.648 0.476 1.194 1.118 1.118l3.867-0.432 8.756-8.756zM35.204 25.635l-6.299 6.309h4.322c1.102 0 1.992-0.89 1.992-1.992z"></path>
</svg>
