<!-- Generated by IcoMoon.io -->
<svg version="1.1" xmlns="http://www.w3.org/2000/svg" width="41" height="32" viewBox="0 0 41 32">
<title>restaurant-cog</title>
<path d="M6.669 0.15c-0.683 0-1.323 0.354-1.684 0.932l-4.032 6.437c-2.081 3.324-0.236 7.946 3.653 8.475 0.28 0.037 0.565 0.056 0.851 0.056 1.839 0 3.467-0.808 4.585-2.057 1.118 1.249 2.752 2.057 4.585 2.057 1.839 0 3.467-0.808 4.585-2.057 0.762 0.85 1.762 1.496 2.902 1.822 0.3-0.431 0.614-0.823 0.94-1.175 0.62-0.675 2.266-0.933 3.065-0.466l0.402 0.232c0.313 0.175 0.554-0.078 0.555-0.318v-0.472c-0.001-0.923 1.044-2.227 1.944-2.419 1.546-0.35 3.436-0.367 5.067-0.001 0.904 0.191 1.947 1.497 1.948 2.419v0.471c0.005 0.243 0.252 0.483 1.111 0 1.396-1.776 1.673-4.437 0.337-6.568l-4.032-6.437c-0.36-0.578-1-0.932-1.684-0.932zM31.532 12.931c-0.706 0.002-1.403 0.081-2.077 0.233-0.21 0.044-0.362 0.235-0.362 0.451v1.893c-0.858 0.305-1.652 0.762-2.345 1.353l-1.639-0.947c-0.184-0.108-0.426-0.070-0.572 0.089-0.953 1.029-1.684 2.275-2.109 3.647-0.064 0.21 0.025 0.432 0.21 0.54l1.639 0.947c-0.165 0.896-0.165 1.811 0 2.707l-1.639 0.947c-0.191 0.108-0.273 0.33-0.21 0.54 0.426 1.372 1.156 2.611 2.109 3.647 0.146 0.159 0.381 0.197 0.572 0.089l1.639-0.947c0.693 0.591 1.487 1.048 2.345 1.353v1.893c0 0.216 0.152 0.407 0.362 0.451 1.417 0.318 2.859 0.305 4.206 0 0.21-0.044 0.362-0.235 0.362-0.451v-1.893c0.858-0.305 1.652-0.762 2.344-1.353l1.639 0.947c0.184 0.108 0.426 0.070 0.572-0.089 0.953-1.029 1.684-2.275 2.109-3.647 0.064-0.21-0.025-0.432-0.21-0.54l-1.639-0.947c0.165-0.896 0.165-1.811 0-2.707l1.639-0.947c0.191-0.108 0.273-0.33 0.21-0.54-0.426-1.372-1.156-2.618-2.109-3.647-0.146-0.159-0.381-0.197-0.572-0.089l-1.639 0.947c-0.693-0.591-1.487-1.048-2.344-1.353v-1.893c0-0.216-0.152-0.407-0.362-0.451-0.708-0.159-1.423-0.235-2.129-0.233zM3.321 17.745v12.227c0 1.1 0.888 1.988 1.988 1.988l21.893 0.016c-0.079-0.211-0.124-0.418-0.124-0.609l0-0.471c0.31 0.11-0.804-0.532-0.555-0.319l-0.413 0.238c-0.815 0.463-2.437 0.198-3.056-0.473-1.097-1.192-2.056-2.817-2.552-4.419-0.158-0.521-0.013-1.287 0.306-1.917l-13.517 0.002v-6.201c-0.596 0.137-1.212 0.236-1.833 0.236-0.373 0-0.752-0.025-1.118-0.075-0.348-0.050-0.69-0.131-1.019-0.224zM31.564 19.41c1.696 0 3.081 1.385 3.081 3.081s-1.379 3.081-3.081 3.081c-1.703 0-3.082-1.385-3.082-3.081s1.385-3.081 3.082-3.081z"></path>
</svg>
