<!-- Generated by IcoMoon.io -->
<svg version="1.1" xmlns="http://www.w3.org/2000/svg" width="39" height="32" viewBox="0 0 39 32">
<title>restaurant-minus</title>
<path d="M6.651 0.070c-0.69 0-1.336 0.355-1.7 0.935l-4.071 6.457c-2.102 3.334-0.238 7.971 3.689 8.501 0.282 0.037 0.571 0.056 0.86 0.056 1.857 0 3.5-0.81 4.63-2.063 1.129 1.253 2.779 2.063 4.63 2.063 1.857 0 3.5-0.81 4.63-2.063 0.461 0.511 1.008 0.949 1.62 1.287l-0.001-0.907c0.001-1.801 2.228-4.016 4.042-4.015l12.329-0c0.426 0 0.875 0.123 1.313 0.333l0.022-0.004c0.028-1.083-0.247-2.193-0.875-3.189l-4.071-6.457c-0.364-0.58-1.010-0.935-1.7-0.935zM24.978 13.315c-0.565 0-1.027 0.459-1.027 1.021v2.041c0 0.561 0.462 1.021 1.027 1.021h12.329c0.565 0 1.027-0.459 1.027-1.021v-2.041c0-0.561-0.462-1.021-1.027-1.021zM3.27 17.719v12.265c0 1.103 0.897 1.994 2.007 1.994h28.104c1.11 0 2.007-0.891 2.007-1.994l-0.006-9.593-4.009 0-0.006 3.609h-24.089v-6.22c-0.602 0.137-1.223 0.237-1.851 0.237-0.376 0-0.759-0.025-1.129-0.075-0.351-0.050-0.696-0.131-1.029-0.224z"></path>
</svg>
