<!-- Generated by IcoMoon.io -->
<svg version="1.1" xmlns="http://www.w3.org/2000/svg" width="45" height="32" viewBox="0 0 45 32">
<title>salad</title>
<path d="M34.28 1.792c-5.993 0.049-11.305 3.411-14.131 8.381 2.144 2.193 3.509 4.629 4.337 7.699 8.040-0.877 14.472-7.748 14.374-16.031zM2.169 6.421c-0.049 6.042 2.242 8.527 4.434 11.305l15.446 0.049c-1.218-4.873-6.481-11.353-15.3-11.353zM38.484 11.96c-1.632 2.438-4.352 4.614-6.403 5.778l9.38 0.036c-0.48-1.92-1.588-4.089-2.977-5.814zM1.542 20.6c-1.072 0-1.462 0.877-1.364 1.608 0.755 1.721 5.144 1.512 11.103 4.262v1.169c-0.049 1.462 1.072 2.875 2.924 3.021l8.416-0.024 8.417 0.024c1.852-0.146 2.972-1.559 2.924-3.021v-1.169c5.958-2.75 10.348-2.541 11.103-4.262 0.097-0.731-0.292-1.608-1.364-1.608z"></path>
</svg>
