<!-- Generated by IcoMoon.io -->
<svg version="1.1" xmlns="http://www.w3.org/2000/svg" width="36" height="32" viewBox="0 0 36 32">
<title>shell</title>
<path d="M18.056 30.945c3.16 0 4.279-3.638 6.665-4.998 2.335-1.27 7.907-3.096 10.334-6.033 1.37-1.658 1.122-7.048-1.138-5.542l-9.416 6.137 8.222-9.318c2.399-3.123-1.976-7.733-4.393-4.095l-6.829 9.607 4.239-11.836c1.099-3.392-4.584-6.537-5.515-2.066l-2.169 11.664-2.169-11.664c-0.931-4.472-6.614-1.327-5.515 2.066l4.239 11.836-6.829-9.607c-2.417-3.638-6.792 0.972-4.393 4.095l8.222 9.318-9.416-6.137c-2.26-1.507-2.508 3.884-1.138 5.542 2.427 2.937 7.999 4.763 10.334 6.033 2.385 1.36 3.505 4.998 6.665 4.998v0"></path>
</svg>
