<!-- Generated by IcoMoon.io -->
<svg version="1.1" xmlns="http://www.w3.org/2000/svg" width="29" height="32" viewBox="0 0 29 32">
<title>sort-dollar</title>
<path d="M20.298 1.98h1.768c0.471 0 0.856 0.385 0.856 0.856v2.68l0.028 0c1.729 0.005 3.414 0.595 4.763 1.652l0 0c0.424 0.327 0.477 0.942 0.097 1.312v0l-1.923 1.879c-0.278 0.273-0.717 0.326-1.043 0.107h-0c-0.557-0.379-1.225-0.585-1.905-0.585h-3.664c-0.916 0-1.658 0.742-1.658 1.658 0 0.731 0.489 1.388 1.191 1.59l5.968 1.746c3.185 0.929 5.171 4.405 3.988 7.794-0.847 2.425-3.251 3.949-5.815 3.999l-0.027 0v2.691c0 0.471-0.385 0.856-0.856 0.856h-1.768c-0.471 0-0.856-0.385-0.856-0.856v-2.68l-0.028-0c-1.729-0.006-3.414-0.595-4.763-1.652l-0-0c-0.424-0.328-0.477-0.942-0.097-1.312v-0l1.923-1.879c0.278-0.273 0.717-0.326 1.043-0.107 0.557 0.379 1.226 0.585 1.905 0.585h3.664c0.916 0 1.658-0.742 1.658-1.658 0-0.731-0.489-1.382-1.191-1.59l-5.664-1.658c-2.443-0.715-4.38-2.779-4.611-5.314-0.325-3.57 2.491-6.579 5.995-6.579h0.166v-2.68c0-0.471 0.385-0.856 0.856-0.856v0M5.076 2.057c-0.57 0-1.033 0.463-1.033 1.033v18.994h-2.973c-0.457 0-0.803 0.279-0.952 0.638s-0.101 0.801 0.223 1.125l-0.002-0.002 5.009 6.010c0.403 0.403 1.057 0.403 1.46 0l0.001-0.001 5.006-6.007c0.322-0.323 0.37-0.765 0.221-1.124s-0.495-0.638-0.952-0.638h-2.973v-18.994c0-0.57-0.463-1.033-1.033-1.033h-2.003"></path>
</svg>
