<!-- Generated by IcoMoon.io -->
<svg version="1.1" xmlns="http://www.w3.org/2000/svg" width="38" height="32" viewBox="0 0 38 32">
<title>soup</title>
<path d="M7.998 1.883c-0.54 0-0.963 0.468-0.897 0.99 0.221 1.805 1.018 3.468 2.297 4.775 0.685 0.697 1.125 1.571 1.279 2.519 0.072 0.424 0.44 0.743 0.88 0.743h0.937c0.54 0 0.968-0.468 0.897-0.99-0.215-1.595-0.927-3.065-2.070-4.224-0.822-0.839-1.347-1.9-1.507-3.053-0.060-0.435-0.434-0.759-0.886-0.759zM16.909 1.883c-0.54 0-0.963 0.468-0.897 0.99 0.221 1.805 1.018 3.468 2.297 4.775 0.685 0.697 1.125 1.571 1.279 2.519 0.072 0.424 0.44 0.743 0.88 0.743h0.937c0.54 0 0.969-0.468 0.897-0.99-0.215-1.595-0.927-3.065-2.070-4.224-0.822-0.839-1.347-1.9-1.506-3.053-0.061-0.435-0.434-0.759-0.886-0.759zM25.821 1.883c-0.54 0-0.963 0.468-0.897 0.99 0.221 1.805 1.018 3.468 2.297 4.775 0.685 0.697 1.125 1.571 1.279 2.519 0.072 0.424 0.44 0.743 0.88 0.743h0.937c0.54 0 0.968-0.468 0.897-0.99-0.215-1.595-0.927-3.065-2.070-4.224-0.822-0.839-1.347-1.9-1.506-3.053-0.061-0.435-0.434-0.759-0.886-0.759zM1.53 12.726c-0.61 0.095-1.248 0.733-1.22 1.426 0.527 6.046 4.382 11.011 9.402 12.98v0.888c0 1.442 1.137 2.579 2.469 2.607l14.062 0.028c1.304-0.028 2.357-1.165 2.413-2.607l-0.028-0.86c5.076-1.997 8.875-6.989 9.347-13.036 0.055-0.804-0.527-1.442-1.192-1.426l-35.252 0.039z"></path>
</svg>
