<!-- Generated by IcoMoon.io -->
<svg version="1.1" xmlns="http://www.w3.org/2000/svg" width="39" height="32" viewBox="0 0 39 32">
<title>spaghetti</title>
<path d="M13.238 0.058c-0.655 0.012-1.32 0.453-1.698 1.043s-0.47 1.325 0.019 1.93l0 0v0l1.771 1.614 2.717-2.683-1.936-1.62c-0.27-0.204-0.57-0.29-0.872-0.284zM18.45 2.522c-0.37 0-0.74 0.141-1.023 0.424l-11.254 11.254c-0.565 0.565-0.565 1.481 0 2.045s1.48 0.565 2.045 0l11.254-11.254c0.565-0.565 0.565-1.48 0-2.045-0.282-0.282-0.653-0.424-1.023-0.424zM9.319 4.011c-0.658 0-1.318 0.429-1.7 1.009s-0.485 1.308-0.032 1.907c0.019 0.021 0.175 0.189 1.811 1.683l2.67-2.628c-1.653-1.472-1.843-1.65-1.866-1.67-0.276-0.21-0.579-0.302-0.883-0.302zM22.175 5.57c-0.37 0-0.74 0.141-1.023 0.424l-11.603 11.577c-0.949 0.85-1.58 1.824-1.85 2.751s-0.178 1.808 0.318 2.474c0.734 1 0.901 1.6 0.772 2.035s-0.552 0.702-0.994 1.037c-0.442 0.335-0.902 0.737-1.109 1.441s-0.159 1.71 0.418 3.253c0.274 0.741 1.075 1.040 1.778 0.642 0.614-0.351 0.875-0.686 0.944-1.026s-0.051-0.683-0.202-1.051c-0.272-0.626-0.157-1.077 0.116-1.474s0.702-0.74 1.060-1.152c0.358-0.412 0.644-0.892 0.631-1.563s-0.326-1.535-1.168-2.712c-0.115-0.154-0.152-0.348-0.13-0.563s0.104-0.451 0.228-0.692c0.248-0.482 0.663-0.981 1.107-1.36l11.747-11.555c0.547-0.583 0.547-1.499-0.018-2.064-0.282-0.282-0.652-0.424-1.023-0.424zM5.41 7.947c-0.667-0.017-1.336 0.411-1.727 0.991s-0.504 1.309-0.061 1.893c0.037 0.049 0.194 0.255 1.781 1.756l2.684-2.666-1.782-1.636c-0.28-0.227-0.588-0.33-0.896-0.338zM24.562 9.064l-3.545 3.547 2.107 2.055c0.035 0.067 0.015 0.165-0.040 0.271s-0.146 0.221-0.249 0.322-0.218 0.189-0.323 0.242c-0.105 0.053-0.198 0.070-0.258 0.034-0.192-0.174-0.498-0.456-2.152-2.006l-3.427 3.421 1.246 1.189c0.362 0.384 0.652 0.701 0.831 0.898 0.036 0.060 0.019 0.153-0.034 0.257s-0.14 0.219-0.241 0.321-0.215 0.193-0.322 0.248c-0.106 0.056-0.204 0.076-0.273 0.042l-2.109-2.055-3.449 3.434 1.246 1.189c3.125 2.783 6.705 3.432 9.702 2.196l5.081 6.595c0.825 0.902 2.148 1.019 2.9 0.267l3.502-3.502c0.757-0.757 0.628-2.081-0.267-2.9h-0l-6.492-5.183c1.228-2.986 0.594-6.556-3.428-10.884l0.001 0.005z"></path>
</svg>
