<!-- Generated by IcoMoon.io -->
<svg version="1.1" xmlns="http://www.w3.org/2000/svg" width="41" height="32" viewBox="0 0 41 32">
<title>user-read</title>
<path d="M14.018 0.167c-4.393 0-7.953 3.56-7.953 7.953s3.56 7.953 7.953 7.953c4.393 0 7.953-3.56 7.953-7.953s-3.56-7.953-7.953-7.953zM23.704 16.374v11.736l7.491 3.752v-12.205zM40.706 16.374l-7.491 3.283v12.205l7.491-3.752zM8.451 18.061c-4.61 0-8.351 3.74-8.351 8.351v2.585c0 1.647 1.336 2.982 2.982 2.982l21.817-0.009-4.113-2.059 0-11.737c-0.398-0.083-0.797-0.113-1.202-0.113h-1.038c-1.379 0.634-2.914 0.994-4.53 0.994s-3.144-0.36-4.529-0.994z"></path>
</svg>
